<svg width="360" height="120" viewBox="0 0 360 120" fill="none" xmlns="http://www.w3.org/2000/svg">
<g clip-path="url(#clip0)">
<path d="M6.87821 23.349C2.66045 27.9182 0.0648886 34.0069 0 40.7013V80.2022C0.0594812 86.8641 2.628 92.9203 6.80791 97.4842L43.9079 60.3841L6.87821 23.349Z" fill="#3DDDC6"/>
<path d="M88.7133 59.5622L43.9402 15H25.9391C18.9906 15 12.6856 17.7361 8.02441 22.1864L45.4056 59.5622H88.7133V59.5622Z" fill="#FEDB35"/>
<path d="M45.8809 105.898H64.9797C79.2931 105.882 90.8919 94.2776 90.8919 79.9588V61.1952H45.8809V105.898Z" fill="#2A74F9"/>
<path d="M90.8982 40.9392C90.8982 26.6151 79.2831 15 64.959 15H46.2549L90.9036 59.4378V40.9392H90.8982Z" fill="#F93948"/>
<path d="M44.2543 62.3472L7.95996 98.6415C12.6157 103.124 18.9424 105.887 25.9125 105.893H44.2543V62.3472Z" fill="#006776"/>
<path d="M46.2491 15H45.8705H45.4704H43.9347L88.7078 59.5622H45.4001L8.01887 22.1864C7.87827 22.3216 7.72687 22.4568 7.58628 22.5974C7.34295 22.8407 7.10502 23.0948 6.8725 23.349L43.9077 60.3787L6.80762 97.4788C7.06176 97.7599 7.32673 98.0357 7.59169 98.3007C7.71066 98.4197 7.8296 98.5278 7.94857 98.6414L44.2429 62.347V105.898H45.4974H45.8705V61.1952H90.8816V60.4706V60.4544V60.449V60.4436V60.422V59.5622V59.4324L46.2491 15Z" fill="white"/>
<path d="M327.828 58.9891V94.2344H315.337V58.9891H307.691V49.2342H315.337C313.293 34.6342 323.227 22.3919 338.184 27.0044V37.4461C329.207 35.1479 327.007 41.3177 327.834 49.2287H358.51V94.2289H346.197V58.9891H327.828Z" fill="black"/>
<path d="M344.706 33.2553C344.397 23.203 360.306 23.203 359.998 33.2553C360.23 43.0805 344.473 43.0859 344.706 33.2553Z" fill="black"/>
<path d="M144.929 49.326C148.795 49.2611 152.607 50.2453 155.96 52.1703C159.21 54.0737 161.832 56.8855 163.508 60.2597C165.347 63.98 166.261 68.0842 166.185 72.2263C166.261 76.3792 165.347 80.4888 163.508 84.2199C161.848 87.5941 159.237 90.4113 156.003 92.3309C152.672 94.2614 148.876 95.2401 145.026 95.1752C141.938 95.213 138.878 94.5696 136.066 93.2934C133.53 92.1849 131.356 90.3951 129.788 88.1186L129.031 93.9045H119.108V27.8317H131.053V54.6847C132.627 52.8949 134.622 51.5268 136.861 50.7103C139.44 49.7586 142.176 49.2827 144.929 49.326ZM142.717 84.2631C145.783 84.3712 148.741 83.1438 150.828 80.8997C152.975 78.4934 154.094 75.3463 153.954 72.1235C154.094 68.9007 152.975 65.7536 150.828 63.3473C148.692 61.0816 145.686 59.8596 142.576 59.984C139.483 59.8542 136.482 61.06 134.346 63.2987C132.2 65.7212 131.086 68.8845 131.243 72.1181C131.086 75.3626 132.227 78.5367 134.417 80.9376C136.585 83.1762 139.602 84.3875 142.717 84.2631ZM216.733 80.2184C215.809 84.6632 213.17 88.5674 209.39 91.0818C205.275 93.8666 200.398 95.2995 195.428 95.1752C191.281 95.2563 187.182 94.2613 183.532 92.2877C180.136 90.4113 177.357 87.5832 175.54 84.155C173.609 80.4509 172.636 76.3197 172.717 72.1397C172.631 67.9598 173.599 63.8286 175.54 60.1246C177.346 56.7341 180.109 53.9547 183.489 52.1324C187.074 50.2236 191.091 49.2611 195.152 49.3368C199.051 49.2557 202.907 50.1587 206.367 51.9648C209.536 53.6465 212.164 56.2042 213.938 59.3242C215.771 62.5903 216.701 66.2836 216.641 70.0255C216.614 71.9018 216.441 73.7728 216.122 75.6221H184.565C184.586 78.3366 185.733 80.9159 187.739 82.749C189.864 84.5984 192.616 85.5663 195.428 85.4527C197.521 85.5068 199.597 85.0201 201.447 84.0414C203.042 83.2033 204.313 81.8676 205.07 80.2292H216.733V80.2184ZM204.367 67.6192C204.421 65.2399 203.399 62.9634 201.593 61.4115C199.668 59.8596 197.245 59.0593 194.774 59.1566C192.2 59.0539 189.675 59.8704 187.647 61.4602C185.792 62.9742 184.7 65.2291 184.662 67.6192H204.367ZM249.042 60.5626H240.856V93.9045H228.916V60.5626H220.827V50.7319H228.916V39.4954H240.856V50.7319H249.037L249.042 60.5626ZM300.25 50.7373V93.9099H288.781V88.4052C287.175 90.5789 285.018 92.2877 282.525 93.3421C279.745 94.5804 276.728 95.2076 273.684 95.1752C269.958 95.2455 266.287 94.2722 263.08 92.3796C259.971 90.487 257.462 87.7455 255.861 84.4794C254.071 80.7807 253.184 76.709 253.276 72.5994C253.19 68.3762 254.104 64.1963 255.953 60.4003C257.635 56.9883 260.274 54.144 263.55 52.219C266.941 50.2615 270.802 49.2611 274.717 49.3314C277.653 49.2828 280.567 49.8343 283.277 50.9536C285.694 51.9648 287.802 53.5978 289.392 55.6797L290.333 50.7427L300.25 50.7373ZM276.739 84.2631C279.854 84.3875 282.871 83.1816 285.039 80.9484C287.229 78.5475 288.37 75.3734 288.213 72.1289C288.37 68.8953 287.246 65.7266 285.088 63.3095C282.941 61.0708 279.935 59.865 276.836 59.9948C273.716 59.8434 270.694 61.0763 268.558 63.3582C266.454 65.7861 265.356 68.9223 265.502 72.1343C265.362 75.3571 266.481 78.5043 268.628 80.9105C270.721 83.1492 273.678 84.3766 276.739 84.2631Z" fill="#2A74F9"/>
</g>
<defs>
<clipPath id="clip0">
<rect width="360" height="120" fill="white"/>
</clipPath>
</defs>
</svg>
